<mxfile host="app.diagrams.net" agent="Mozilla/5.0 (Macintosh; Intel Mac OS X 10_15_7) AppleWebKit/605.1.15 (KHTML, like Gecko) Version/17.6 Safari/605.1.15" version="25.0.3">
  <diagram id="3yLI1t425MeNp9wt49uc" name="Page-1">
    <mxGraphModel dx="260" dy="-1592" grid="1" gridSize="5" guides="1" tooltips="1" connect="1" arrows="1" fold="1" page="0" pageScale="1" pageWidth="850" pageHeight="1100" background="none" math="0" shadow="0">
      <root>
        <mxCell id="0" />
        <mxCell id="1" parent="0" />
        <mxCell id="IfAqgoVQBoFN7zSB_NkO-1" value="" style="rounded=0;whiteSpace=wrap;html=1;strokeWidth=5;fontSize=37;fontColor=#1BA1E2;fillColor=none;strokeColor=#1BA1E2;" parent="1" vertex="1">
          <mxGeometry x="958.999951171875" y="3479.999951171875" width="339" height="89" as="geometry" />
        </mxCell>
        <mxCell id="IfAqgoVQBoFN7zSB_NkO-2" value="" style="rounded=0;whiteSpace=wrap;html=1;strokeWidth=5;fontSize=37;fontColor=#CC99FF;labelBackgroundColor=none;fillColor=none;strokeColor=#CC99FF;" parent="1" vertex="1">
          <mxGeometry x="949.999951171875" y="2519.999951171875" width="348" height="92" as="geometry" />
        </mxCell>
        <mxCell id="IfAqgoVQBoFN7zSB_NkO-3" value="&lt;p&gt;&lt;br&gt;&lt;/p&gt;" style="rounded=0;whiteSpace=wrap;html=1;strokeWidth=5;fontSize=37;fontColor=#FF8000;fillColor=none;strokeColor=#FF8000;" parent="1" vertex="1">
          <mxGeometry x="954.999951171875" y="2759.999951171875" width="343" height="86" as="geometry" />
        </mxCell>
        <mxCell id="IfAqgoVQBoFN7zSB_NkO-4" value="" style="rounded=0;whiteSpace=wrap;html=1;strokeWidth=5;fontSize=37;fontColor=#00CC00;labelBackgroundColor=none;fillColor=none;strokeColor=#00CC00;" parent="1" vertex="1">
          <mxGeometry x="949.999951171875" y="3239.999951171875" width="348" height="92" as="geometry" />
        </mxCell>
        <mxCell id="IfAqgoVQBoFN7zSB_NkO-17" value="" style="rounded=0;whiteSpace=wrap;html=1;strokeWidth=5;fontSize=37;fillColor=none;strokeColor=#F7F1C0;fontColor=#FFFF33;" parent="1" vertex="1">
          <mxGeometry x="958.999951171875" y="3719.999951171875" width="339" height="89" as="geometry" />
        </mxCell>
        <mxCell id="IfAqgoVQBoFN7zSB_NkO-21" value="" style="rounded=0;whiteSpace=wrap;html=1;strokeWidth=5;fontSize=37;fillColor=none;strokeColor=#FF3399;fontColor=#FF3399;" parent="1" vertex="1">
          <mxGeometry x="958.999951171875" y="2999.999951171875" width="339" height="89" as="geometry" />
        </mxCell>
        <mxCell id="IfAqgoVQBoFN7zSB_NkO-22" style="edgeStyle=orthogonalEdgeStyle;rounded=0;html=1;jettySize=auto;orthogonalLoop=1;strokeWidth=5;fontSize=37;endArrow=block;endFill=0;endSize=20;strokeColor=#00CC00;fontColor=#FF3399;dashed=1;" parent="1" edge="1">
          <mxGeometry relative="1" as="geometry">
            <mxPoint x="1380" y="3240" as="sourcePoint" />
            <mxPoint x="1600" y="3240" as="targetPoint" />
            <Array as="points" />
          </mxGeometry>
        </mxCell>
        <mxCell id="sA1cKwP8ZIGVj0J1uy1--1" style="edgeStyle=orthogonalEdgeStyle;rounded=0;html=1;jettySize=auto;orthogonalLoop=1;strokeWidth=5;fontSize=37;endArrow=block;endFill=1;endSize=18;dashed=1;strokeColor=#00CC00;fontColor=#FF3399;" parent="1" edge="1">
          <mxGeometry relative="1" as="geometry">
            <mxPoint x="1379.9999511718743" y="3334.999951171875" as="sourcePoint" />
            <mxPoint x="1600" y="3335" as="targetPoint" />
            <Array as="points" />
          </mxGeometry>
        </mxCell>
        <mxCell id="sA1cKwP8ZIGVj0J1uy1--2" style="edgeStyle=orthogonalEdgeStyle;rounded=0;html=1;jettySize=auto;orthogonalLoop=1;strokeWidth=5;fontSize=37;endArrow=block;endFill=1;endSize=18;strokeColor=#00CC00;fontColor=#FF3399;" parent="1" edge="1">
          <mxGeometry relative="1" as="geometry">
            <mxPoint x="1379.9999511718743" y="3384.999951171875" as="sourcePoint" />
            <mxPoint x="1600" y="3385" as="targetPoint" />
            <Array as="points" />
          </mxGeometry>
        </mxCell>
        <mxCell id="sA1cKwP8ZIGVj0J1uy1--3" style="edgeStyle=orthogonalEdgeStyle;rounded=0;html=1;jettySize=auto;orthogonalLoop=1;strokeWidth=5;fontSize=37;endArrow=block;endFill=0;endSize=20;strokeColor=#FF3399;fontColor=#FF3399;dashed=1;" parent="1" edge="1">
          <mxGeometry relative="1" as="geometry">
            <mxPoint x="1380" y="3000" as="sourcePoint" />
            <mxPoint x="1600" y="3000" as="targetPoint" />
            <Array as="points" />
          </mxGeometry>
        </mxCell>
        <mxCell id="sA1cKwP8ZIGVj0J1uy1--5" style="edgeStyle=orthogonalEdgeStyle;rounded=0;html=1;jettySize=auto;orthogonalLoop=1;strokeWidth=5;fontSize=37;endArrow=block;endFill=1;endSize=18;dashed=1;strokeColor=#FF3399;fontColor=#FF3399;" parent="1" edge="1">
          <mxGeometry relative="1" as="geometry">
            <mxPoint x="1379.9999511718743" y="3094.999951171875" as="sourcePoint" />
            <mxPoint x="1600" y="3095" as="targetPoint" />
            <Array as="points" />
          </mxGeometry>
        </mxCell>
        <mxCell id="sA1cKwP8ZIGVj0J1uy1--6" style="edgeStyle=orthogonalEdgeStyle;rounded=0;html=1;jettySize=auto;orthogonalLoop=1;strokeWidth=5;fontSize=37;endArrow=block;endFill=1;endSize=18;strokeColor=#FF3399;fontColor=#FF3399;" parent="1" edge="1">
          <mxGeometry relative="1" as="geometry">
            <mxPoint x="1379.9999511718743" y="3144.999951171875" as="sourcePoint" />
            <mxPoint x="1600" y="3145" as="targetPoint" />
            <Array as="points" />
          </mxGeometry>
        </mxCell>
        <mxCell id="sA1cKwP8ZIGVj0J1uy1--7" style="edgeStyle=orthogonalEdgeStyle;rounded=0;html=1;jettySize=auto;orthogonalLoop=1;strokeWidth=5;fontSize=37;endArrow=block;endFill=0;endSize=20;strokeColor=#FF8000;fontColor=#FF3399;dashed=1;" parent="1" edge="1">
          <mxGeometry relative="1" as="geometry">
            <mxPoint x="1381" y="2760" as="sourcePoint" />
            <mxPoint x="1601" y="2760" as="targetPoint" />
            <Array as="points" />
          </mxGeometry>
        </mxCell>
        <mxCell id="sA1cKwP8ZIGVj0J1uy1--9" style="edgeStyle=orthogonalEdgeStyle;rounded=0;html=1;jettySize=auto;orthogonalLoop=1;strokeWidth=5;fontSize=37;endArrow=block;endFill=1;endSize=18;dashed=1;strokeColor=#FF8000;fontColor=#FF3399;" parent="1" edge="1">
          <mxGeometry relative="1" as="geometry">
            <mxPoint x="1380.9999511718743" y="2854.999951171875" as="sourcePoint" />
            <mxPoint x="1601" y="2855" as="targetPoint" />
            <Array as="points" />
          </mxGeometry>
        </mxCell>
        <mxCell id="sA1cKwP8ZIGVj0J1uy1--10" style="edgeStyle=orthogonalEdgeStyle;rounded=0;html=1;jettySize=auto;orthogonalLoop=1;strokeWidth=5;fontSize=37;endArrow=block;endFill=1;endSize=18;strokeColor=#FF8000;fontColor=#FF3399;" parent="1" edge="1">
          <mxGeometry relative="1" as="geometry">
            <mxPoint x="1380.9999511718743" y="2904.999951171875" as="sourcePoint" />
            <mxPoint x="1601" y="2905" as="targetPoint" />
            <Array as="points" />
          </mxGeometry>
        </mxCell>
        <mxCell id="sA1cKwP8ZIGVj0J1uy1--11" style="edgeStyle=orthogonalEdgeStyle;rounded=0;html=1;jettySize=auto;orthogonalLoop=1;strokeWidth=5;fontSize=37;endArrow=block;endFill=0;endSize=20;strokeColor=#CC99FF;fontColor=#FF3399;dashed=1;" parent="1" edge="1">
          <mxGeometry relative="1" as="geometry">
            <mxPoint x="1380" y="2520" as="sourcePoint" />
            <mxPoint x="1600" y="2520" as="targetPoint" />
            <Array as="points" />
          </mxGeometry>
        </mxCell>
        <mxCell id="sA1cKwP8ZIGVj0J1uy1--13" style="edgeStyle=orthogonalEdgeStyle;rounded=0;html=1;jettySize=auto;orthogonalLoop=1;strokeWidth=5;fontSize=37;endArrow=block;endFill=1;endSize=18;dashed=1;strokeColor=#CC99FF;fontColor=#FF3399;" parent="1" edge="1">
          <mxGeometry relative="1" as="geometry">
            <mxPoint x="1379.9999511718743" y="2614.999951171875" as="sourcePoint" />
            <mxPoint x="1600" y="2615" as="targetPoint" />
            <Array as="points" />
          </mxGeometry>
        </mxCell>
        <mxCell id="sA1cKwP8ZIGVj0J1uy1--14" style="edgeStyle=orthogonalEdgeStyle;rounded=0;html=1;jettySize=auto;orthogonalLoop=1;strokeWidth=5;fontSize=37;endArrow=block;endFill=1;endSize=18;strokeColor=#CC99FF;fontColor=#FF3399;" parent="1" edge="1">
          <mxGeometry relative="1" as="geometry">
            <mxPoint x="1379.9999511718743" y="2664.999951171875" as="sourcePoint" />
            <mxPoint x="1600" y="2665" as="targetPoint" />
            <Array as="points" />
          </mxGeometry>
        </mxCell>
        <mxCell id="sA1cKwP8ZIGVj0J1uy1--19" style="edgeStyle=orthogonalEdgeStyle;rounded=0;html=1;jettySize=auto;orthogonalLoop=1;strokeWidth=5;fontSize=37;endArrow=block;endFill=0;endSize=20;strokeColor=#1BA1E2;fontColor=#FF3399;dashed=1;" parent="1" edge="1">
          <mxGeometry relative="1" as="geometry">
            <mxPoint x="1380" y="3480" as="sourcePoint" />
            <mxPoint x="1600" y="3480" as="targetPoint" />
            <Array as="points" />
          </mxGeometry>
        </mxCell>
        <mxCell id="sA1cKwP8ZIGVj0J1uy1--21" style="edgeStyle=orthogonalEdgeStyle;rounded=0;html=1;jettySize=auto;orthogonalLoop=1;strokeWidth=5;fontSize=37;endArrow=block;endFill=1;endSize=18;dashed=1;strokeColor=#1BA1E2;fontColor=#FF3399;" parent="1" edge="1">
          <mxGeometry relative="1" as="geometry">
            <mxPoint x="1379.9999511718743" y="3574.999951171875" as="sourcePoint" />
            <mxPoint x="1600" y="3575" as="targetPoint" />
            <Array as="points" />
          </mxGeometry>
        </mxCell>
        <mxCell id="sA1cKwP8ZIGVj0J1uy1--22" style="edgeStyle=orthogonalEdgeStyle;rounded=0;html=1;jettySize=auto;orthogonalLoop=1;strokeWidth=5;fontSize=37;endArrow=block;endFill=1;endSize=18;strokeColor=#1BA1E2;fontColor=#FF3399;" parent="1" edge="1">
          <mxGeometry relative="1" as="geometry">
            <mxPoint x="1379.9999511718743" y="3624.999951171875" as="sourcePoint" />
            <mxPoint x="1600" y="3625" as="targetPoint" />
            <Array as="points" />
          </mxGeometry>
        </mxCell>
        <mxCell id="sA1cKwP8ZIGVj0J1uy1--23" style="edgeStyle=orthogonalEdgeStyle;rounded=0;html=1;jettySize=auto;orthogonalLoop=1;strokeWidth=5;fontSize=37;endArrow=block;endFill=0;endSize=20;strokeColor=#F7F1C0;fontColor=#FF3399;dashed=1;" parent="1" edge="1">
          <mxGeometry relative="1" as="geometry">
            <mxPoint x="1380" y="3720" as="sourcePoint" />
            <mxPoint x="1600" y="3720" as="targetPoint" />
            <Array as="points" />
          </mxGeometry>
        </mxCell>
        <mxCell id="sA1cKwP8ZIGVj0J1uy1--25" style="edgeStyle=orthogonalEdgeStyle;rounded=0;html=1;jettySize=auto;orthogonalLoop=1;strokeWidth=5;fontSize=37;endArrow=block;endFill=1;endSize=18;dashed=1;strokeColor=#F7F1C0;fontColor=#FF3399;" parent="1" edge="1">
          <mxGeometry relative="1" as="geometry">
            <mxPoint x="1379.9999511718743" y="3814.999951171875" as="sourcePoint" />
            <mxPoint x="1600" y="3815" as="targetPoint" />
            <Array as="points" />
          </mxGeometry>
        </mxCell>
        <mxCell id="sA1cKwP8ZIGVj0J1uy1--26" style="edgeStyle=orthogonalEdgeStyle;rounded=0;html=1;jettySize=auto;orthogonalLoop=1;strokeWidth=5;fontSize=37;endArrow=block;endFill=1;endSize=18;strokeColor=#F7F1C0;fontColor=#FF3399;" parent="1" edge="1">
          <mxGeometry relative="1" as="geometry">
            <mxPoint x="1379.9999511718743" y="3864.999951171875" as="sourcePoint" />
            <mxPoint x="1600" y="3865" as="targetPoint" />
            <Array as="points" />
          </mxGeometry>
        </mxCell>
        <mxCell id="sA1cKwP8ZIGVj0J1uy1--27" style="edgeStyle=orthogonalEdgeStyle;rounded=0;html=1;jettySize=auto;orthogonalLoop=1;strokeWidth=5;fontSize=37;endArrow=block;endFill=0;endSize=20;strokeColor=#748F75;fontColor=#FF3399;dashed=1;" parent="1" edge="1">
          <mxGeometry relative="1" as="geometry">
            <mxPoint x="1380" y="3960" as="sourcePoint" />
            <mxPoint x="1600" y="3960" as="targetPoint" />
            <Array as="points" />
          </mxGeometry>
        </mxCell>
        <mxCell id="sA1cKwP8ZIGVj0J1uy1--29" style="edgeStyle=orthogonalEdgeStyle;rounded=0;html=1;jettySize=auto;orthogonalLoop=1;strokeWidth=5;fontSize=37;endArrow=block;endFill=1;endSize=18;dashed=1;strokeColor=#748F75;fontColor=#FF3399;" parent="1" edge="1">
          <mxGeometry relative="1" as="geometry">
            <mxPoint x="1379.9999511718743" y="4054.999951171875" as="sourcePoint" />
            <mxPoint x="1600" y="4055" as="targetPoint" />
            <Array as="points" />
          </mxGeometry>
        </mxCell>
        <mxCell id="sA1cKwP8ZIGVj0J1uy1--30" style="edgeStyle=orthogonalEdgeStyle;rounded=0;html=1;jettySize=auto;orthogonalLoop=1;strokeWidth=5;fontSize=37;endArrow=block;endFill=1;endSize=18;strokeColor=#748F75;fontColor=#FF3399;" parent="1" edge="1">
          <mxGeometry relative="1" as="geometry">
            <mxPoint x="1379.9999511718743" y="4104.999951171875" as="sourcePoint" />
            <mxPoint x="1600" y="4105" as="targetPoint" />
            <Array as="points" />
          </mxGeometry>
        </mxCell>
        <mxCell id="sA1cKwP8ZIGVj0J1uy1--31" value="" style="rounded=0;whiteSpace=wrap;html=1;strokeWidth=5;fontSize=37;fillColor=none;strokeColor=#748F75;fontColor=#FFFF33;" parent="1" vertex="1">
          <mxGeometry x="958.999951171875" y="3959.999951171875" width="339" height="89" as="geometry" />
        </mxCell>
        <mxCell id="sA1cKwP8ZIGVj0J1uy1--32" style="edgeStyle=orthogonalEdgeStyle;rounded=0;html=1;jettySize=auto;orthogonalLoop=1;strokeWidth=5;fontSize=37;endArrow=block;endFill=0;endSize=20;strokeColor=#B5C96B;fontColor=#FF3399;dashed=1;" parent="1" edge="1">
          <mxGeometry relative="1" as="geometry">
            <mxPoint x="1380" y="4200" as="sourcePoint" />
            <mxPoint x="1600" y="4200" as="targetPoint" />
            <Array as="points" />
          </mxGeometry>
        </mxCell>
        <mxCell id="sA1cKwP8ZIGVj0J1uy1--34" style="edgeStyle=orthogonalEdgeStyle;rounded=0;html=1;jettySize=auto;orthogonalLoop=1;strokeWidth=5;fontSize=37;endArrow=block;endFill=1;endSize=18;dashed=1;strokeColor=#B5C96B;fontColor=#FF3399;" parent="1" edge="1">
          <mxGeometry relative="1" as="geometry">
            <mxPoint x="1379.9999511718743" y="4294.999951171875" as="sourcePoint" />
            <mxPoint x="1600" y="4295" as="targetPoint" />
            <Array as="points" />
          </mxGeometry>
        </mxCell>
        <mxCell id="sA1cKwP8ZIGVj0J1uy1--35" style="edgeStyle=orthogonalEdgeStyle;rounded=0;html=1;jettySize=auto;orthogonalLoop=1;strokeWidth=5;fontSize=37;endArrow=block;endFill=1;endSize=18;strokeColor=#B5C96B;fontColor=#FF3399;" parent="1" edge="1">
          <mxGeometry relative="1" as="geometry">
            <mxPoint x="1379.9999511718743" y="4344.999951171875" as="sourcePoint" />
            <mxPoint x="1600" y="4345" as="targetPoint" />
            <Array as="points" />
          </mxGeometry>
        </mxCell>
        <mxCell id="sA1cKwP8ZIGVj0J1uy1--36" value="" style="rounded=0;whiteSpace=wrap;html=1;strokeWidth=5;fontSize=37;fillColor=none;strokeColor=#B5C96B;fontColor=#FFFF33;" parent="1" vertex="1">
          <mxGeometry x="958.999951171875" y="4199.999951171875" width="339" height="89" as="geometry" />
        </mxCell>
        <mxCell id="D30X_9MvRIOJi729hGr3-1" style="edgeStyle=orthogonalEdgeStyle;rounded=0;html=1;jettySize=auto;orthogonalLoop=1;strokeWidth=5;fontSize=37;endArrow=block;endFill=0;endSize=20;strokeColor=#00CC00;fontColor=#FF3399;" parent="1" edge="1">
          <mxGeometry relative="1" as="geometry">
            <mxPoint x="1381" y="3285.5" as="sourcePoint" />
            <mxPoint x="1601" y="3285.5" as="targetPoint" />
            <Array as="points" />
          </mxGeometry>
        </mxCell>
        <mxCell id="D30X_9MvRIOJi729hGr3-2" style="edgeStyle=orthogonalEdgeStyle;rounded=0;html=1;jettySize=auto;orthogonalLoop=1;strokeWidth=5;fontSize=37;endArrow=block;endFill=0;endSize=20;strokeColor=#1BA1E2;fontColor=#FF3399;" parent="1" edge="1">
          <mxGeometry relative="1" as="geometry">
            <mxPoint x="1380" y="3524" as="sourcePoint" />
            <mxPoint x="1600" y="3524" as="targetPoint" />
            <Array as="points" />
          </mxGeometry>
        </mxCell>
        <mxCell id="D30X_9MvRIOJi729hGr3-3" style="edgeStyle=orthogonalEdgeStyle;rounded=0;html=1;jettySize=auto;orthogonalLoop=1;strokeWidth=5;fontSize=37;endArrow=block;endFill=0;endSize=20;strokeColor=#F7F1C0;fontColor=#FF3399;" parent="1" edge="1">
          <mxGeometry relative="1" as="geometry">
            <mxPoint x="1380" y="3764" as="sourcePoint" />
            <mxPoint x="1600" y="3764" as="targetPoint" />
            <Array as="points" />
          </mxGeometry>
        </mxCell>
        <mxCell id="D30X_9MvRIOJi729hGr3-4" style="edgeStyle=orthogonalEdgeStyle;rounded=0;html=1;jettySize=auto;orthogonalLoop=1;strokeWidth=5;fontSize=37;endArrow=block;endFill=0;endSize=20;strokeColor=#748F75;fontColor=#FF3399;" parent="1" edge="1">
          <mxGeometry relative="1" as="geometry">
            <mxPoint x="1380" y="4004" as="sourcePoint" />
            <mxPoint x="1600" y="4004" as="targetPoint" />
            <Array as="points" />
          </mxGeometry>
        </mxCell>
        <mxCell id="D30X_9MvRIOJi729hGr3-5" style="edgeStyle=orthogonalEdgeStyle;rounded=0;html=1;jettySize=auto;orthogonalLoop=1;strokeWidth=5;fontSize=37;endArrow=block;endFill=0;endSize=20;strokeColor=#B5C96B;fontColor=#FF3399;" parent="1" edge="1">
          <mxGeometry relative="1" as="geometry">
            <mxPoint x="1380" y="4244" as="sourcePoint" />
            <mxPoint x="1600" y="4244" as="targetPoint" />
            <Array as="points" />
          </mxGeometry>
        </mxCell>
        <mxCell id="D30X_9MvRIOJi729hGr3-6" style="edgeStyle=orthogonalEdgeStyle;rounded=0;html=1;jettySize=auto;orthogonalLoop=1;strokeWidth=5;fontSize=37;endArrow=block;endFill=0;endSize=20;strokeColor=#FF3399;fontColor=#FF3399;" parent="1" edge="1">
          <mxGeometry relative="1" as="geometry">
            <mxPoint x="1380" y="3044" as="sourcePoint" />
            <mxPoint x="1600" y="3044" as="targetPoint" />
            <Array as="points" />
          </mxGeometry>
        </mxCell>
        <mxCell id="D30X_9MvRIOJi729hGr3-7" style="edgeStyle=orthogonalEdgeStyle;rounded=0;html=1;jettySize=auto;orthogonalLoop=1;strokeWidth=5;fontSize=37;endArrow=block;endFill=0;endSize=20;strokeColor=#FF8000;fontColor=#FF3399;" parent="1" edge="1">
          <mxGeometry relative="1" as="geometry">
            <mxPoint x="1381" y="2802.5" as="sourcePoint" />
            <mxPoint x="1601" y="2802.5" as="targetPoint" />
            <Array as="points" />
          </mxGeometry>
        </mxCell>
        <mxCell id="D30X_9MvRIOJi729hGr3-8" style="edgeStyle=orthogonalEdgeStyle;rounded=0;html=1;jettySize=auto;orthogonalLoop=1;strokeWidth=5;fontSize=37;endArrow=block;endFill=0;endSize=20;strokeColor=#CC99FF;fontColor=#FF3399;" parent="1" edge="1">
          <mxGeometry relative="1" as="geometry">
            <mxPoint x="1379" y="2565.5" as="sourcePoint" />
            <mxPoint x="1599" y="2565.5" as="targetPoint" />
            <Array as="points" />
          </mxGeometry>
        </mxCell>
      </root>
    </mxGraphModel>
  </diagram>
</mxfile>
